<svg width="21" height="20" viewBox="0 0 21 20" fill="none" xmlns="http://www.w3.org/2000/svg">
<path fill-rule="evenodd" clip-rule="evenodd" d="M9.32657 7.20535C7.37722 5.60296 5.79767 3.6947 4.61072 1.47144C4.37333 1.02861 3.82095 0.859697 3.37356 1.09709C2.93073 1.33448 2.76179 1.88688 2.99918 2.33427C4.30483 4.76753 6.03052 6.85841 8.16704 8.61602C8.55508 8.93558 9.13484 8.88079 9.45441 8.49275C9.77397 8.10014 9.71461 7.52492 9.32657 7.20535Z" fill="#C35C3C"/>
<path fill-rule="evenodd" clip-rule="evenodd" d="M8.287 0.964718C8.38743 2.80907 8.47876 4.65341 8.59289 6.49776C8.62484 6.99993 9.05854 7.38341 9.56071 7.35145C10.0629 7.3195 10.4464 6.8858 10.4144 6.38363C10.3003 4.54385 10.2089 2.70407 10.1085 0.859727C10.0811 0.358922 9.64743 -0.0268411 9.14526 0.00146326C8.64309 0.0297676 8.25504 0.461174 8.287 0.964718Z" fill="#C35C3C"/>
<path fill-rule="evenodd" clip-rule="evenodd" d="M15.0645 1.33906C13.8958 3.10124 12.572 4.72644 11.2389 6.36991C10.9193 6.76252 10.9787 7.33777 11.3713 7.65277C11.7639 7.97233 12.3391 7.91297 12.6541 7.52036C14.0237 5.83579 15.3841 4.16035 16.5893 2.34796C16.8678 1.92796 16.7491 1.36189 16.3291 1.08341C15.9137 0.804935 15.343 0.919064 15.0645 1.33906Z" fill="#C35C3C"/>
<path fill-rule="evenodd" clip-rule="evenodd" d="M19.5917 7.89016C16.4234 8.03168 13.0588 8.03625 9.89058 7.83538C9.38841 7.80799 8.95472 8.1869 8.92276 8.69364C8.8908 9.19582 9.27428 9.62951 9.77645 9.66147C13.0086 9.86234 16.4417 9.85777 19.6739 9.71625C20.176 9.69342 20.5686 9.26431 20.5458 8.76213C20.523 8.25996 20.0938 7.86733 19.5917 7.89016Z" fill="#C35C3C"/>
<path fill-rule="evenodd" clip-rule="evenodd" d="M8.16456 8.46986C10.1185 10.862 12.1409 13.2086 13.9533 15.7103C14.25 16.1166 14.8207 16.2079 15.2316 15.9112C15.6379 15.6144 15.7291 15.0437 15.4324 14.6374C13.5972 12.1083 11.552 9.73441 9.57525 7.31484C9.25569 6.9268 8.68044 6.86747 8.2924 7.18703C7.89979 7.5066 7.84499 8.08181 8.16456 8.46986Z" fill="#C35C3C"/>
<path fill-rule="evenodd" clip-rule="evenodd" d="M8.75631 9.16404C9.26761 11.6566 9.40914 14.0397 9.44566 16.5643C9.45022 17.0664 9.86567 17.4682 10.3678 17.4636C10.8746 17.4545 11.2763 17.0436 11.2672 16.5368C11.2307 13.8936 11.08 11.4056 10.5459 8.79426C10.4409 8.30122 9.96155 7.98163 9.46394 8.08663C8.97089 8.18706 8.65131 8.671 8.75631 9.16404Z" fill="#C35C3C"/>
<path fill-rule="evenodd" clip-rule="evenodd" d="M8.83873 8.96323C7.3596 11.9215 6.59721 15.2085 5.01308 18.1028C4.77112 18.5411 4.93543 19.098 5.37826 19.34C5.82109 19.5819 6.37352 19.4176 6.61547 18.9793C8.20873 16.0667 8.98023 12.7615 10.4731 9.7804C10.6968 9.32844 10.5141 8.78061 10.0667 8.55235C9.61479 8.32866 9.06699 8.51128 8.83873 8.96323Z" fill="#C35C3C"/>
<path fill-rule="evenodd" clip-rule="evenodd" d="M9.65277 8.29192C6.7082 8.81236 3.7682 9.04975 0.805373 9.40127C0.3032 9.46061 -0.0528874 9.91259 0.00646043 10.4148C0.0658083 10.9169 0.517807 11.273 1.01998 11.2137C4.01476 10.8622 6.99128 10.6156 9.97237 10.0906C10.4654 9.99932 10.7987 9.52453 10.7119 9.03149C10.6206 8.53388 10.1504 8.20062 9.65277 8.29192Z" fill="#C35C3C"/>
<path fill-rule="evenodd" clip-rule="evenodd" d="M11.7018 6.90432C11.0946 6.87693 10.5194 6.83583 9.92591 6.74909C9.42374 6.67605 8.96264 7.02301 8.8896 7.52062C8.81655 8.01822 9.16348 8.48389 9.66109 8.55693C10.3185 8.6528 10.9531 8.69845 11.6196 8.72584C12.1218 8.74867 12.5509 8.36061 12.5691 7.85387C12.592 7.35169 12.204 6.92715 11.7018 6.90432Z" fill="#C35C3C"/>
</svg>
